# xmcd
#
# Track frame offsets:
#	150
#	15875
#	29702
#	49014
#	68906
#	84695
#	106335
#	116801
#	130603
#	148475
#
# Disc length: 2181 seconds
#
# Revision: 0
# Processed by: cddbd v1.5.2PL0 Copyright (c) Steve Scherf et al.
# Submitted via: audiograbber 1.83.01
#
DISCID=8b08830a
DTITLE=Σταύρος Ξαρχάκος - Νυν καί αεί
DYEAR=1974
DGENRE=
TTITLE0=Νυν καί αεί
TTITLE1=Στον κάτω δρόμο
TTITLE2=Τα δόκανα
TTITLE3=Μεγάλη Παρασκευή
TTITLE4=Ηρθε ο καιρός
TTITLE5=Μαύρος ήλιος
TTITLE6=Η Λιόστρα
TTITLE7=Ο δράκος
TTITLE8=Ανώνυμον
TTITLE9=Εμείς που μείναμε
EXTD=
EXTT0=
EXTT1=
EXTT2=
EXTT3=
EXTT4=
EXTT5=
EXTT6=
EXTT7=
EXTT8=
EXTT9=
PLAYORDER=
